<svg xmlns="http://www.w3.org/2000/svg" xmlns:xlink="http://www.w3.org/1999/xlink" version="1.1" viewBox="0 0 500 500"><title>Artboard</title><desc>Created with Sketch.</desc><defs><rect id="a" width="480" height="475" x="10" y="13" rx="62"/><mask id="b" width="480" height="475" x="0" y="0" fill="#fff"><use xlink:href="#a"/></mask></defs><g fill="none" fill-rule="evenodd"><g transform="translate(86 78)"><rect width="76" height="23" y="59" fill="#EDEDED" rx="4"/><rect width="76" height="23" y="207" fill="#EDEDED" rx="4"/><rect width="76" height="10" y="33" fill="#CFCFCF" rx="4"/><rect width="113" height="17" fill="#CFCFCF" rx="4"/><rect width="76" height="10" y="180" fill="#CFCFCF" rx="4"/><rect width="76" height="23" y="141" fill="#EDEDED" rx="4"/><rect width="76" height="23" y="99" fill="#EDEDED" rx="4"/><rect width="76" height="23" y="247" fill="#EDEDED" rx="4"/><rect width="223" height="23" x="105" y="59" fill="#EDEDED" rx="4"/><rect width="223" height="23" x="105" y="207" fill="#EDEDED" rx="4"/><rect width="223" height="23" x="105" y="141" fill="#EDEDED" rx="4"/><rect width="223" height="23" x="105" y="99" fill="#EDEDED" rx="4"/><rect width="223" height="23" x="105" y="247" fill="#EDEDED" rx="4"/><rect width="328" height="43" y="301" fill="#EDEDED" rx="4"/><rect width="76" height="22" x="8" y="312" fill="#0D83D0" opacity=".323" rx="4"/></g><use stroke="#CFCFCF" stroke-dasharray="30" stroke-width="10" mask="url(#b)" xlink:href="#a"/></g></svg>